<?xml version="1.0" standalone="no"?>
<!DOCTYPE svg PUBLIC "-//W3C//DTD SVG 20010904//EN"
 "http://www.w3.org/TR/2001/REC-SVG-20010904/DTD/svg10.dtd">
<svg version="1.0" xmlns="http://www.w3.org/2000/svg"
 width="1094.000000pt" height="1094.000000pt" viewBox="0 0 1094.000000 1094.000000"
 preserveAspectRatio="xMidYMid meet">
<metadata>
Created by potrace 1.14, written by Peter Selinger 2001-2017
</metadata>
<g transform="translate(0.000000,1094.000000) scale(0.100000,-0.100000)"
fill="#000000" stroke="none">
<path d="M5189 10169 c-1208 -60 -2336 -640 -3105 -1599 -116 -144 -334 -462
-334 -487 0 -5 39 -17 88 -26 48 -10 158 -42 244 -71 l158 -52 46 70 c185 280
483 614 730 818 471 389 1132 690 1745 797 309 53 716 71 989 43 471 -49 1039
-212 1441 -413 539 -269 977 -657 1320 -1167 51 -76 93 -138 94 -140 2 -2 25
11 53 27 67 42 179 93 287 130 49 18 91 34 93 36 5 5 -150 235 -237 349 -380
504 -878 924 -1435 1212 -471 242 -931 385 -1451 449 -114 14 -474 36 -540 33
-16 0 -100 -5 -186 -9z"/>
<path d="M5245 9104 c-719 -57 -1346 -306 -1895 -752 -194 -158 -456 -440
-600 -644 l-33 -48 133 -127 c231 -222 373 -431 496 -733 l43 -105 1 551 c0
325 4 573 10 605 25 133 119 252 247 312 62 28 79 32 188 35 103 4 129 1 183
-17 76 -26 124 -55 175 -107 21 -22 354 -411 740 -866 385 -455 704 -825 709
-822 4 3 327 385 718 849 391 464 728 857 749 874 22 17 66 44 98 59 55 26 66
27 203 27 142 0 146 -1 213 -32 120 -57 210 -163 243 -287 11 -42 14 -376 15
-1956 l0 -1905 55 110 c29 61 102 209 161 329 122 250 160 299 273 354 71 35
174 55 231 46 l37 -6 15 53 c18 60 57 225 57 238 0 5 -39 37 -87 72 -165 120
-340 304 -466 492 -211 313 -293 770 -217 1211 37 216 126 440 244 611 l55 79
-56 81 c-124 178 -314 397 -460 531 -542 497 -1177 789 -1903 874 -98 11 -487
21 -575 14z"/>
<path d="M3830 5565 l0 -2195 380 0 380 0 0 960 c0 733 -4 1035 -16 1275 -8
173 -14 323 -12 333 2 11 43 -42 111 -146 88 -134 179 -248 527 -657 232 -272
424 -496 428 -499 5 -3 198 219 431 493 349 411 442 526 527 657 58 87 108
160 113 162 5 2 7 -32 5 -75 -18 -323 -24 -736 -24 -1556 l0 -947 380 0 380 0
0 2195 0 2195 -32 0 c-31 0 -77 -53 -898 -1029 -476 -566 -868 -1029 -871
-1028 -4 1 -276 319 -604 707 -1239 1461 -1142 1350 -1175 1350 l-30 0 0
-2195z"/>
<path d="M9341 7745 c-276 -42 -482 -138 -654 -304 -208 -200 -318 -458 -334
-776 -10 -214 26 -435 96 -589 42 -93 138 -229 233 -330 128 -137 273 -243
681 -499 542 -340 651 -440 692 -634 27 -128 12 -270 -40 -373 -118 -233 -450
-333 -795 -239 -175 48 -427 193 -577 334 l-82 76 -29 -63 c-16 -35 -86 -179
-155 -320 l-125 -257 48 -45 c161 -150 514 -320 782 -376 241 -50 561 -58 783
-21 599 102 955 476 1005 1055 28 324 -44 612 -210 836 -153 207 -305 324
-911 699 -201 125 -363 244 -445 327 -213 215 -202 586 23 770 64 52 138 80
247 94 251 31 514 -71 726 -281 44 -43 82 -79 84 -79 8 0 328 592 330 608 2
24 -200 173 -314 231 -115 59 -268 114 -398 142 -128 28 -516 36 -661 14z"/>
<path d="M40 5530 l0 -2162 673 5 c734 4 770 7 1015 67 308 75 569 220 788
435 334 330 529 791 585 1387 15 169 6 643 -15 798 -67 468 -222 828 -470
1087 -279 292 -602 447 -1086 520 -85 13 -235 17 -797 20 l-693 5 0 -2162z
m1370 1526 c222 -47 373 -128 520 -282 128 -134 204 -265 270 -463 84 -250
115 -492 107 -825 -7 -323 -53 -565 -148 -782 -157 -358 -430 -580 -784 -640
-49 -8 -190 -18 -312 -21 l-223 -6 0 1523 0 1523 248 -6 c164 -4 272 -11 322
-21z"/>
<path d="M1277 6623 c-10 -9 -9 -2121 1 -2126 16 -9 132 23 193 53 92 47 203
162 256 265 101 198 146 433 145 755 0 405 -89 718 -252 893 -79 84 -138 120
-246 147 -87 22 -88 23 -97 13z"/>
<path d="M9625 6670 c-26 -4 -30 -10 -33 -42 -2 -20 2 -47 8 -58 25 -46 514
-380 584 -398 17 -5 18 -1 11 49 -12 90 -32 126 -106 189 -47 41 -80 61 -106
65 -72 12 -72 12 -75 68 l-3 52 -66 33 c-67 35 -157 52 -214 42z"/>
<path d="M8912 4869 c6 -184 16 -211 107 -279 81 -61 235 -142 316 -166 79
-23 208 -24 258 -2 35 16 37 20 37 62 0 40 -4 48 -41 79 -58 50 -246 177 -449
304 -96 60 -188 117 -204 128 l-28 19 4 -145z"/>
<path d="M5030 3982 c0 -571 -2 -676 -16 -727 -27 -105 -87 -188 -177 -248
-109 -72 -102 -71 -601 -77 l-449 -5 149 -77 c347 -178 697 -289 1085 -343
158 -22 550 -31 719 -16 359 32 704 119 1036 261 116 50 319 152 339 171 5 5
-86 9 -233 9 -140 0 -263 5 -294 11 -121 26 -240 114 -292 218 -56 110 -56
109 -56 828 0 365 -3 663 -7 662 -5 0 -55 -57 -113 -126 -183 -219 -214 -249
-297 -290 -67 -33 -86 -38 -168 -41 -189 -8 -258 33 -469 282 -82 97 -151 176
-153 176 -1 0 -3 -301 -3 -668z"/>
<path d="M3341 4359 c-85 -221 -210 -439 -353 -618 l-67 -84 68 -76 c138 -153
441 -430 441 -403 0 5 -8 29 -17 53 -16 40 -18 105 -23 643 l-5 599 -44 -114z"/>
<path d="M8807 2882 c-208 -313 -554 -636 -907 -846 -540 -321 -1134 -492
-1937 -560 l-41 -3 -21 58 c-86 236 -357 361 -600 278 -121 -42 -210 -123
-270 -249 -31 -65 -36 -86 -39 -168 -5 -116 15 -198 67 -280 153 -236 461
-291 684 -124 73 55 138 147 164 230 10 31 21 60 26 63 5 3 55 9 113 13 245
16 587 69 844 132 873 214 1539 628 2007 1249 73 98 158 224 152 228 -2 2 -38
11 -79 20 -41 9 -84 19 -96 22 -17 5 -28 -6 -67 -63z"/>
</g>
</svg>
